<mxfile host="app.diagrams.net" modified="2021-09-24T23:25:43.455Z" agent="5.0 (X11; Linux x86_64) AppleWebKit/537.36 (KHTML, like Gecko) Chrome/94.0.4606.61 Safari/537.36" etag="Qy_eGyi9gitkFXU1FkzE" version="15.2.9" type="github">
  <diagram id="R2lEEEUBdFMjLlhIrx00" name="Page-1">
    <mxGraphModel dx="781" dy="373" grid="1" gridSize="10" guides="1" tooltips="1" connect="1" arrows="1" fold="1" page="1" pageScale="1" pageWidth="850" pageHeight="1100" math="0" shadow="0" extFonts="Permanent Marker^https://fonts.googleapis.com/css?family=Permanent+Marker">
      <root>
        <mxCell id="0" />
        <mxCell id="1" parent="0" />
        <mxCell id="DRpHCGu0aHwwigbvsTkq-1" value="Entidade Fraca" style="swimlane;childLayout=stackLayout;horizontal=1;startSize=30;horizontalStack=0;rounded=1;fontSize=14;fontStyle=0;strokeWidth=2;resizeParent=0;resizeLast=1;shadow=0;dashed=0;align=center;" vertex="1" parent="1">
          <mxGeometry x="50" y="160" width="160" height="120" as="geometry" />
        </mxCell>
        <mxCell id="DRpHCGu0aHwwigbvsTkq-2" value="* Attribute1&#xa;Attribute2&#xa;Attribute3" style="align=left;strokeColor=none;fillColor=none;spacingLeft=4;fontSize=12;verticalAlign=top;resizable=0;rotatable=0;part=1;" vertex="1" parent="DRpHCGu0aHwwigbvsTkq-1">
          <mxGeometry y="30" width="160" height="90" as="geometry" />
        </mxCell>
        <mxCell id="DRpHCGu0aHwwigbvsTkq-6" value="Entidade" style="swimlane;childLayout=stackLayout;horizontal=1;startSize=30;horizontalStack=0;rounded=0;fontSize=14;fontStyle=0;strokeWidth=2;resizeParent=0;resizeLast=1;shadow=0;dashed=0;align=center;" vertex="1" parent="1">
          <mxGeometry x="50" y="10" width="160" height="120" as="geometry" />
        </mxCell>
        <mxCell id="DRpHCGu0aHwwigbvsTkq-7" value="* Attribute1&#xa;Attribute2&#xa;Attribute3" style="align=left;strokeColor=none;fillColor=none;spacingLeft=4;fontSize=12;verticalAlign=top;resizable=0;rotatable=0;part=1;" vertex="1" parent="DRpHCGu0aHwwigbvsTkq-6">
          <mxGeometry y="30" width="160" height="90" as="geometry" />
        </mxCell>
        <mxCell id="DRpHCGu0aHwwigbvsTkq-12" value="&amp;nbsp;aluga&amp;nbsp;" style="edgeStyle=orthogonalEdgeStyle;rounded=0;orthogonalLoop=1;jettySize=auto;html=1;entryX=0;entryY=0.333;entryDx=0;entryDy=0;entryPerimeter=0;startArrow=ERone;startFill=0;endArrow=ERmany;endFill=0;" edge="1" parent="1" source="DRpHCGu0aHwwigbvsTkq-8" target="DRpHCGu0aHwwigbvsTkq-11">
          <mxGeometry relative="1" as="geometry" />
        </mxCell>
        <mxCell id="DRpHCGu0aHwwigbvsTkq-8" value="Estacionamento" style="swimlane;childLayout=stackLayout;horizontal=1;startSize=30;horizontalStack=0;rounded=0;fontSize=14;fontStyle=0;strokeWidth=2;resizeParent=0;resizeLast=1;shadow=0;dashed=0;align=center;" vertex="1" parent="1">
          <mxGeometry x="270" y="20" width="160" height="80" as="geometry">
            <mxRectangle x="320" y="30" width="130" height="30" as="alternateBounds" />
          </mxGeometry>
        </mxCell>
        <mxCell id="DRpHCGu0aHwwigbvsTkq-10" value="Vaga" style="swimlane;childLayout=stackLayout;horizontal=1;startSize=30;horizontalStack=0;rounded=0;fontSize=14;fontStyle=0;strokeWidth=2;resizeParent=0;resizeLast=1;shadow=0;dashed=0;align=center;" vertex="1" parent="1">
          <mxGeometry x="590" y="20" width="160" height="70" as="geometry" />
        </mxCell>
        <mxCell id="DRpHCGu0aHwwigbvsTkq-11" value="* Identificador&#xa;Status" style="align=left;strokeColor=none;fillColor=none;spacingLeft=4;fontSize=12;verticalAlign=top;resizable=0;rotatable=0;part=1;" vertex="1" parent="DRpHCGu0aHwwigbvsTkq-10">
          <mxGeometry y="30" width="160" height="40" as="geometry" />
        </mxCell>
        <mxCell id="DRpHCGu0aHwwigbvsTkq-14" value="&amp;nbsp;ocupa&amp;nbsp;" style="edgeStyle=orthogonalEdgeStyle;rounded=0;orthogonalLoop=1;jettySize=auto;html=1;entryX=0.5;entryY=1;entryDx=0;entryDy=0;startArrow=ERone;startFill=0;endArrow=ERone;endFill=0;exitX=0.5;exitY=0;exitDx=0;exitDy=0;" edge="1" parent="1" source="DRpHCGu0aHwwigbvsTkq-16" target="DRpHCGu0aHwwigbvsTkq-11">
          <mxGeometry relative="1" as="geometry">
            <mxPoint x="670" y="250" as="sourcePoint" />
          </mxGeometry>
        </mxCell>
        <mxCell id="DRpHCGu0aHwwigbvsTkq-16" value="Carro" style="swimlane;childLayout=stackLayout;horizontal=1;startSize=30;horizontalStack=0;rounded=0;fontSize=14;fontStyle=0;strokeWidth=2;resizeParent=0;resizeLast=1;shadow=0;dashed=0;align=center;" vertex="1" parent="1">
          <mxGeometry x="590" y="150" width="160" height="90" as="geometry" />
        </mxCell>
        <mxCell id="DRpHCGu0aHwwigbvsTkq-17" value="* Placa&#xa;Marca&#xa;Cor" style="align=left;strokeColor=none;fillColor=none;spacingLeft=4;fontSize=12;verticalAlign=top;resizable=0;rotatable=0;part=1;" vertex="1" parent="DRpHCGu0aHwwigbvsTkq-16">
          <mxGeometry y="30" width="160" height="60" as="geometry" />
        </mxCell>
        <mxCell id="DRpHCGu0aHwwigbvsTkq-26" value="possui" style="edgeStyle=orthogonalEdgeStyle;rounded=0;orthogonalLoop=1;jettySize=auto;html=1;entryX=0.5;entryY=1;entryDx=0;entryDy=0;startArrow=none;startFill=0;endArrow=none;endFill=0;" edge="1" parent="1" source="DRpHCGu0aHwwigbvsTkq-18" target="DRpHCGu0aHwwigbvsTkq-17">
          <mxGeometry relative="1" as="geometry" />
        </mxCell>
        <mxCell id="DRpHCGu0aHwwigbvsTkq-18" value="Cliente" style="swimlane;childLayout=stackLayout;horizontal=1;startSize=30;horizontalStack=0;rounded=0;fontSize=14;fontStyle=0;strokeWidth=2;resizeParent=0;resizeLast=1;shadow=0;dashed=0;align=center;" vertex="1" parent="1">
          <mxGeometry x="590" y="300" width="160" height="90" as="geometry" />
        </mxCell>
        <mxCell id="DRpHCGu0aHwwigbvsTkq-19" value="* Placa&#xa;Marca&#xa;Cor" style="align=left;strokeColor=none;fillColor=none;spacingLeft=4;fontSize=12;verticalAlign=top;resizable=0;rotatable=0;part=1;" vertex="1" parent="DRpHCGu0aHwwigbvsTkq-18">
          <mxGeometry y="30" width="160" height="60" as="geometry" />
        </mxCell>
        <mxCell id="DRpHCGu0aHwwigbvsTkq-25" value="&amp;nbsp;é&amp;nbsp;" style="edgeStyle=orthogonalEdgeStyle;rounded=0;orthogonalLoop=1;jettySize=auto;html=1;entryX=0.25;entryY=1;entryDx=0;entryDy=0;startArrow=ERmandOne;startFill=0;endArrow=ERmandOne;endFill=0;" edge="1" parent="1" source="DRpHCGu0aHwwigbvsTkq-20" target="DRpHCGu0aHwwigbvsTkq-19">
          <mxGeometry relative="1" as="geometry" />
        </mxCell>
        <mxCell id="DRpHCGu0aHwwigbvsTkq-20" value="Avulso" style="swimlane;childLayout=stackLayout;horizontal=1;startSize=30;horizontalStack=0;rounded=1;fontSize=14;fontStyle=0;strokeWidth=2;resizeParent=0;resizeLast=1;shadow=0;dashed=0;align=center;" vertex="1" parent="1">
          <mxGeometry x="560" y="440" width="100" height="70" as="geometry" />
        </mxCell>
        <mxCell id="DRpHCGu0aHwwigbvsTkq-24" value="&amp;nbsp;é&amp;nbsp;" style="edgeStyle=orthogonalEdgeStyle;rounded=0;orthogonalLoop=1;jettySize=auto;html=1;entryX=0.75;entryY=1;entryDx=0;entryDy=0;startArrow=ERmandOne;startFill=0;endArrow=ERmandOne;endFill=0;" edge="1" parent="1" source="DRpHCGu0aHwwigbvsTkq-22" target="DRpHCGu0aHwwigbvsTkq-19">
          <mxGeometry relative="1" as="geometry" />
        </mxCell>
        <mxCell id="DRpHCGu0aHwwigbvsTkq-22" value="Mensalista" style="swimlane;childLayout=stackLayout;horizontal=1;startSize=30;horizontalStack=0;rounded=1;fontSize=14;fontStyle=0;strokeWidth=2;resizeParent=0;resizeLast=1;shadow=0;dashed=0;align=center;" vertex="1" parent="1">
          <mxGeometry x="680" y="440" width="110" height="80" as="geometry" />
        </mxCell>
        <mxCell id="DRpHCGu0aHwwigbvsTkq-23" value="Nome&#xa;Valor Mensal" style="align=left;strokeColor=none;fillColor=none;spacingLeft=4;fontSize=12;verticalAlign=top;resizable=0;rotatable=0;part=1;" vertex="1" parent="DRpHCGu0aHwwigbvsTkq-22">
          <mxGeometry y="30" width="110" height="50" as="geometry" />
        </mxCell>
        <mxCell id="DRpHCGu0aHwwigbvsTkq-29" value="&amp;nbsp;estaciona&amp;nbsp;" style="edgeStyle=orthogonalEdgeStyle;rounded=0;orthogonalLoop=1;jettySize=auto;html=1;entryX=0;entryY=0.5;entryDx=0;entryDy=0;startArrow=none;startFill=0;endArrow=none;endFill=0;" edge="1" parent="1" source="DRpHCGu0aHwwigbvsTkq-28" target="DRpHCGu0aHwwigbvsTkq-16">
          <mxGeometry relative="1" as="geometry" />
        </mxCell>
        <mxCell id="DRpHCGu0aHwwigbvsTkq-28" value="Manobrista" style="swimlane;childLayout=stackLayout;horizontal=1;startSize=30;horizontalStack=0;rounded=0;fontSize=14;fontStyle=0;strokeWidth=2;resizeParent=0;resizeLast=1;shadow=0;dashed=0;align=center;" vertex="1" parent="1">
          <mxGeometry x="270" y="155" width="160" height="80" as="geometry">
            <mxRectangle x="320" y="30" width="130" height="30" as="alternateBounds" />
          </mxGeometry>
        </mxCell>
        <mxCell id="DRpHCGu0aHwwigbvsTkq-33" value="&amp;nbsp;entregue&amp;nbsp;" style="edgeStyle=orthogonalEdgeStyle;rounded=0;orthogonalLoop=1;jettySize=auto;html=1;entryX=0;entryY=0.25;entryDx=0;entryDy=0;startArrow=none;startFill=0;endArrow=none;endFill=0;" edge="1" parent="1" source="DRpHCGu0aHwwigbvsTkq-31" target="DRpHCGu0aHwwigbvsTkq-19">
          <mxGeometry relative="1" as="geometry" />
        </mxCell>
        <mxCell id="DRpHCGu0aHwwigbvsTkq-34" value="&amp;nbsp;registra&amp;nbsp;" style="edgeStyle=orthogonalEdgeStyle;rounded=0;orthogonalLoop=1;jettySize=auto;html=1;entryX=0.5;entryY=1;entryDx=0;entryDy=0;startArrow=none;startFill=0;endArrow=none;endFill=0;" edge="1" parent="1" source="DRpHCGu0aHwwigbvsTkq-31" target="DRpHCGu0aHwwigbvsTkq-28">
          <mxGeometry relative="1" as="geometry" />
        </mxCell>
        <mxCell id="DRpHCGu0aHwwigbvsTkq-31" value="Comprovante" style="swimlane;childLayout=stackLayout;horizontal=1;startSize=30;horizontalStack=0;rounded=0;fontSize=14;fontStyle=0;strokeWidth=2;resizeParent=0;resizeLast=1;shadow=0;dashed=0;align=center;" vertex="1" parent="1">
          <mxGeometry x="270" y="290" width="160" height="110" as="geometry" />
        </mxCell>
        <mxCell id="DRpHCGu0aHwwigbvsTkq-32" value="Data de Chegada&#xa;Data de Saída&#xa;Vaga&#xa;Valor do Estacionamento" style="align=left;strokeColor=none;fillColor=none;spacingLeft=4;fontSize=12;verticalAlign=top;resizable=0;rotatable=0;part=1;" vertex="1" parent="DRpHCGu0aHwwigbvsTkq-31">
          <mxGeometry y="30" width="160" height="80" as="geometry" />
        </mxCell>
      </root>
    </mxGraphModel>
  </diagram>
</mxfile>
